<svg xmlns="http://www.w3.org/2000/svg">
  <symbol id="car1" xmlns="http://www.w3.org/2000/svg" viewBox="0 0 330 122">
    <path
      d="m108.81,116.27c-4.67,0-5.37-1.18-4.49-5.73,3.8-19.5-4.17-38.53-24.86-44.46-23.02-6.6-46.95,9.88-46.43,33.98.1,4.69.69,9.36,1.15,15.18-8.87,0-17.79.1-26.69-.16-.86-.02-2.37-2.24-2.38-3.45-.16-15.83-.11-31.66-.1-47.49,0-.82-.12-2.11.32-2.39,4.93-3.13,3.37-8.05,3.68-12.48.57-8.03,1.21-16.05,1.95-24.07.28-3.05-1.64-3.58-3.86-3.9Q0,20.26,0,13.07C0,8.88,0,4.69,0,.5c.56-.17,1.13-.33,1.69-.5,7.03,5.19,14.09,10.35,21.09,15.58,5.64,4.21,11.15,8.58,16.87,12.67.88.63,2.71.5,3.88.09,17.69-6.04,34.61-15.3,53.08-18.09,14.94-2.26,45.36-1.98,60.44-.93,26.97,1.88,47.51,5.23,70.95,19.95,4.98,3.13,14.49,10.65,19.54,13.58,3.94,2.29,9.11,2.89,13.82,3.33,15.67,1.46,31.14,3.41,45.52,10.47,8.26,4.06,13.4,10.85,16.75,19,4.59,11.17,6.6,22.89,6.43,35.01-.05,3.42-.53,5.66-4.07,5.61-3.93-.05-8.37-.13-12.31-.06-3.5.06-5.24-.91-4.1-5.42,4.19-16.54-2.4-32.77-15.1-40.43-20.64-12.45-46.81-4.5-55.27,19.52-2.15,6.1-1.71,18.46.77,26.39H108.81ZM194.57,31.17c-16.92-5.83-34.68-8.15-52.56-8.85-7.69-.3-15.41-.28-23.1,0-12.13.44-24.1,3.1-33.68,10.47-3.22,2.47-5.25,5.42-8.79,9.21h146.26s-20.99-8.39-28.11-10.85Z" />
    <circle cx="69.5" cy="99.78" r="22.5" />
    <circle cx="274.5" cy="99.78" r="22.5" />
  </symbol>
  <symbol id="car2" xmlns="http://www.w3.org/2000/svg"  viewBox="0 0 300 90">
    <path ud="car" fill-rule="evenodd" d="m57.28,34.86c-14.48,0-26.2,12.33-26.2,27.57s11.72,27.57,26.2,27.57,26.2-12.33,26.2-27.57-11.72-27.57-26.2-27.57Zm49.73-22.02c1.44,3.26,2.59,6.91,3.47,10.87,2,6.6-.95,7.99-7.79,5.29-5.03-3.16-10.06-6.35-15.09-9.51-2.56-1.9-3.78-3.78-3.37-5.63.83-3.65,7.52-5.55,13.01-6.68,6.98-1.46,6.49-1.77,9.77,5.65Zm80.35,19.27c-6.76-7.63-14.58-12.59-23.61-17.37-19.78-10.48-31.88-9.2-52.88-9.2l7.06,19.27c2.95,4.11,6.3,7.01,11.38,7.3h58.06Zm54.39,2.75c-14.48,0-26.2,12.33-26.2,27.57s11.72,27.57,26.2,27.57,26.2-12.33,26.2-27.57-11.72-27.57-26.2-27.57Zm-41.41-8.4c-8.59-5.63-17.94-10.66-28.3-14.95C140.53-1.58,116.43-3.91,83.37,6.62c-9.96,3.98-19.92,7.97-29.88,10.43C43.65,19.52,1.05,21.88,0,29.41l10.52,13.23c-3.83,3.49-6.96,7.79-8.11,14.49.32,4.14,1.39,7.61,3.25,10.38,3.15,4.75,12.38,9.66,17.36,6.86,1.59-.9,2.49-2.7,2.47-5.76-.15-61.41,70.29-54.42,64.99,7.25h122.9c-22.75-61.77,74.32-62,57.08-2.13,6.06,6.89,20.34-3.49,29.54-25.57-2.51-2.62-5.27-5.11-8.35-7.43.15-.13-.15.49.37-.44.51-.93-1.24-4.8-4.86-7.04-18.95-11.69-64.62-11.38-86.82-6.81Z"/>
  </symbol>
  <symbol id="car3" xmlns="http://www.w3.org/2000/svg" viewBox="0 0 300 95.32">
    <path d="m83.48.24c-2.49.7-2.37.6-2.53,2.58.26,3.51-4.57,3.29-14.12,7.4-15.34,5.43-24.63,10.24-33.38,13.62-8.61.98-17.47,2.69-27.05,2.6-.78,1.39-3.13,3.94-1.62,4.55.87.86.89,1.51.07,3.48-.88.94-.71,7.74-.82,10.35-2.97,2.2-3.95,4.92-4.03,10.44.46,5.77-.79,11.5,2.3,14.02,6.04,9.01,14.22,8.69,38.33,10.17-2.6-41.6,58.55-37.06,49.85,4.27,24.76-1.63,139.8,2.86,140.63-2.25-4.64-18.16,12.9-35.36,31.01-30.5,13.76,3.12,22.03,18.28,18.34,31.45,7.54-.83,16.1.47,18.41-5.36,0,0,.56-1.21.56-1.21,0,0-.38-3.64-.38-3.64-.52-8.52,2.86-21.22-.73-25.21-10.45-11.47-60.78-17.16-81.21-16.92-5.35,0-5.3,0-8.14-1.97C191.41,17.84,167.41,1.79,140.72,1.49c-9.47-.48-32.07-.41-42.93.63-7.08.51-6.71.51-8-.23C86.51,0,85.41-.3,83.48.24Zm44.22,7.73c.44,3.41,3.4,20.4,3.73,23.6-5.67-.12-48.02-.17-57.14-2.27-2.3-.6-4.64-2.76-5.84-5.36C61.39,7.48,114.89,6.45,127.42,6.41l.28,1.56Zm14.78-1.09c15.95.95,35.39,6.49,47.74,17.59-3.8.4-5.06,4.16-3.64,7.24-10.61-.02-31.93-.07-42.53-.12,0,0-1.38-3.71-1.38-3.71-2.58-7.01-6.99-20.38-6.99-21.26,0-.14,2.23-.05,6.8.26Z"/>
    <circle cx="66.05" cy="75.21" r="20"/>
    <circle cx="256.05" cy="75.32" r="20"/>
  </symbol>
  <symbol id="car4" xmlns="http://www.w3.org/2000/svg" viewBox="0 0 300.18 82.35">
    <path d="m275.7,74.37c9.86-2.3,23.95-3.29,24.33-11.48-.01-4.23,1.05-11.64-2.32-14.7-1.22-1.28-2.5-2.1-6.47-4.08-16.31-7.04-17.76-12.94-30.06-16.08-14.62-1.55-41.24-2.64-55.21-5.12C191.39,18.6,168.5-.8,155.94.03c-1.46,2.99-2.46,3.84,2.64,6.16,2.94,1.65,12.96,8.36,14.31,8.82,1.95.73.8,1.47-.57,1.15-3.54-.51-5.27-.57-5.09,3.89.02,2.68.59,4.33,1.51,4.31.23,1.04-44.84.19-48.01.51.51-4.4.66-21.89-7.73-15.58-1.17,1.3-1.28,1.84-1.61,8.7-.17,3.62-.31,6.7-.33,6.84-1.93.95-11.17-.83-13.97-1.09-6.16-1.09-13.32-2.58-17.34-5.06-2.82-1.56-4.35-2.16-6.37-2.55-3.88-.73-6.95-.6-15.79.6C37.87,18.51,10.07,27.53.66,44.54c-1.15.99-.44,8.21-.49,9.57,1.11,12.67-1.05,16.09,7.97,17.35,6.99,1.57,27.73,3.83,32.37,3.56-4.6-49.7,57.92-49.24,53.19-.18,46.73.02,72.74,1.68,116.61.79,0,0,.7-.36.7-.36-.75-9.71,1.28-26.17,6.78-30.14,13.58-13.61,41.15-5.49,42.72,10.64,3.11,22.66-7.98,25.06,15.19,18.6Zm-86.92-50.27c.43.32-.02.35-4.8.43l-5.27.12c2.95-.85,2.98-3.35.36-4.67-1.59-.93-3.45-2.71-4.85-3.67,1.25-.81,14.24,7.67,14.55,7.79Z"/>
    <circle cx="236.27" cy="62.8" r="19.5"/>
    <circle cx="67.05" cy="62.85" r="19.5"/>
  </symbol>
  <symbol id="car5" xmlns="http://www.w3.org/2000/svg" viewBox="0 0 300 100">
    <path d="m299.67,65.11c1.95,26.51-4.44,24.56-27.51,23.92,14.73-45.09-64.78-55.46-53.22-.33h-121.48c13.51-43.71-60.68-55.41-54.48-1.66-8.1-1.33-31.66,3.35-37.66-3.25-3.8-4.18-9.34-23.21-.85-25.32C-.36,20.95,19.34,32.23,47.1,28.48,62.76,17.54,83.44.9,105.51.52c52-.88,65.05-4.22,114.6,28.9,19.05,12.72,70.9-5.32,71.83,28.29,4.59.17,6.9,2.94,7.73,7.43h0v-.02Zm-229.01-7.45c28.22-.4,28.22,42.76,0,42.33-28.22.4-28.22-42.74,0-42.33Zm174.7,0c28.22-.4,28.22,42.76,0,42.33-28.22.4-28.22-42.74,0-42.33Zm-157.46-21.17h-13.22c-1.32-1.45-3.95-4.37-5.27-5.81l14.78-19.98,3.71,25.79h0Zm117.92-9.37c-19.58-13.64-40.17-24.16-65.07-22.61l4.41,31.73h60.66v-9.11h0ZM131.19,4.15c-17.54,0-34.73-1.35-42.49,4.44l3.76,27.64h43.63l-4.9-32.08h0Z"/>
  </symbol>
  <symbol id="car6" xmlns="http://www.w3.org/2000/svg" viewBox="0 0 300 100">
    <path fill-rule="evenodd" d="m46.37,55.46c30.86-.43,30.86,44.97,0,44.53-30.86.41-30.86-44.97,0-44.53Zm133.22-25.51c-5.27.32-3.88,5.16-2.71,8.81l-56.63-2.01-4.73-29.36c34.4-1.89,45.93,7.48,75.3,21.93-3.75-.16-7.48-.16-11.24.64h0ZM106.87,7.92c-20.14.25-35.27-2.9-50.48,12.3-3.92,4.04-13.72,13.78-2.19,13.92l58.82,2.24-6.14-28.45h0Zm191.75,55.1c2.54,4.04,1.17,17.7-.88,20.92-1.12,3.86-15.87,1.73-18.58,2.24,7.31-49.05-75.86-55.1-64.16,3.33H79.86c1.54-58.73-69.08-50.69-66.84-3.72C-4.46,88.57,1,75.77.22,65.18h3.49c3.41-11.27-.93-36.37,12.82-42.41C72.55-11.57,157.36-5.59,209.5,30.78l59.63,10.52c14.67.34,24.21,8.51,27.69,21.72,0,0,1.8,0,1.8,0Zm-52.17-7.55c30.86-.43,30.86,44.97,0,44.53-30.86.41-30.86-44.97,0-44.53Z"/>
  </symbol>
  <symbol id="car0" xmlns="http://www.w3.org/2000/svg" viewBox="0 0 300 100">
    <path d="m219.54,82.58H89.81c5.74-39.41-59.99-41.31-56.63-1.5-10.63-4.43-30.68-1.17-32.74-14.1-1.7-7.49,1.76-13.43,5.15-19.86,1.22-6.63,2.03-13.32,3.18-19.97C37.45,19.44,66.65,5.51,97.04,1.28c46.14-5.13,93.89,5.27,132.14,29.57,14.37,2.81,29.49,3.43,43.51,8.35,16.12,5.14,32.03,17.94,26.01,34.76-.78,10.17-14.75,6.75-22.75,8.93,5.63-40.97-61.84-41.02-56.4-.32h0ZM96.97,30.43c6.47-1.04,32.01,4.18,31.33-4.33-1.22-5.59,3.4-17.58-4.58-19.05-19.37-.08-42.44,1.61-55.5,16.37-7.55,10.7,21.87,5.05,28.74,7.01h0Zm81.47,2.56c5.77-.02,18.33,1.6,26.78.37-6.5-13.65-58.45-32.91-67.05-22.06,6.03,30.26,7.9,17.97,40.28,21.69Z"/>
    <path class="e" d="m61.47,56.43c30.38-.64,30.45,43.92.23,43.56-30.3.48-30.66-43.82-.23-43.56Z"/>
    <path d="m247.66,56.42c30.42-.47,30.46,43.82.14,43.57-30.24.54-30.51-43.98-.14-43.57Z"/>
  </symbol>
</svg>