<?xml version="1.0" encoding="iso-8859-1"?>
<!-- Uploaded to: SVG Repo, www.svgrepo.com, Generator: SVG Repo Mixer Tools -->
<svg height="800px" width="800px" version="1.1" id="Layer_1" xmlns="http://www.w3.org/2000/svg" xmlns:xlink="http://www.w3.org/1999/xlink" 
	 viewBox="0 0 512 512" xml:space="preserve">
<path style="fill:#FEE187;" d="M432.993,246.732L266.233,20.54c-5.082-6.892-15.385-6.892-20.466,0L79.007,246.732
	c-6.188,8.394-0.195,20.257,10.232,20.257h333.521C433.19,266.989,439.181,255.126,432.993,246.732z"/>
<path style="fill:#FFC61B;" d="M445.365,237.611L278.605,11.419C273.333,4.268,264.884,0,256.001,0s-17.334,4.268-22.604,11.419
	L66.634,237.611c-6.324,8.578-7.267,19.816-2.462,29.329c4.805,9.513,14.412,15.42,25.068,15.42h55.064v195.605
	c0,18.768,15.269,34.035,34.035,34.035h155.324c18.766,0,34.035-15.268,34.035-34.035V364.661c0-18.766-15.269-34.035-34.035-34.035
	h-95.082c-8.489,0-15.371,6.881-15.371,15.371c0,8.489,6.881,15.371,15.371,15.371h95.082c1.817,0,3.294,1.477,3.294,3.294v113.304
	c0,1.817-1.477,3.294-3.294,3.294H178.339c-1.817,0-3.294-1.477-3.294-3.294V282.36h247.717c10.657,0,20.262-5.909,25.067-15.421
	S451.69,246.19,445.365,237.611z M94.501,251.619l161.5-219.057l161.499,219.057H94.501z"/>
</svg>